<?xml version="1.0" encoding="UTF-8" standalone="no"?>
<!-- Created with Inkscape (http://www.inkscape.org/) -->

<svg
   width="512"
   height="512"
   viewBox="0 0 512 512"
   version="1.1"
   id="svg1"
   xml:space="preserve"
   inkscape:export-filename="Logo.png"
   inkscape:export-xdpi="95.598923"
   inkscape:export-ydpi="95.598923"
   inkscape:version="1.4.2 (f4327f4, 2025-05-13)"
   sodipodi:docname="Logo_.svg"
   xmlns:inkscape="http://www.inkscape.org/namespaces/inkscape"
   xmlns:sodipodi="http://sodipodi.sourceforge.net/DTD/sodipodi-0.dtd"
   xmlns="http://www.w3.org/2000/svg"
   xmlns:svg="http://www.w3.org/2000/svg"><sodipodi:namedview
     id="namedview1"
     pagecolor="#ffffff"
     bordercolor="#000000"
     borderopacity="0.25"
     inkscape:showpageshadow="2"
     inkscape:pageopacity="0.0"
     inkscape:pagecheckerboard="0"
     inkscape:deskcolor="#d1d1d1"
     inkscape:document-units="px"
     inkscape:export-bgcolor="#ffffffff"
     inkscape:zoom="0.69467717"
     inkscape:cx="200.09294"
     inkscape:cy="255.51437"
     inkscape:window-width="1366"
     inkscape:window-height="705"
     inkscape:window-x="-8"
     inkscape:window-y="-8"
     inkscape:window-maximized="1"
     inkscape:current-layer="layer1" /><defs
     id="defs1"><inkscape:path-effect
       effect="fillet_chamfer"
       id="path-effect1"
       is_visible="true"
       lpeversion="1"
       nodesatellites_param="F,0,0,1,0,0,0,1 @ F,0,0,1,0,185.54141,0,1 @ F,0,0,1,0,0,0,1 @ F,0,0,1,0,181.99879,0,1"
       radius="0"
       unit="px"
       method="auto"
       mode="F"
       chamfer_steps="1"
       flexible="false"
       use_knot_distance="true"
       apply_no_radius="true"
       apply_with_radius="true"
       only_selected="false"
       hide_knots="false" /></defs><g
     inkscape:label="Layer 1"
     inkscape:groupmode="layer"
     id="layer1"><g
       id="g1"
       transform="translate(0.1109126,-2.4985885)"><path
         d="m 253.67947,322.27936 2.84669,147.92605 77.10267,-56.81451 a 280.04504,216.09929 0 0 0 36.37142,-32.75471 z"
         style="fill:#00e676;fill-opacity:1;stroke:#000000;stroke-width:0"
         id="path6" /><path
         d="m 199.72961,295.21126 -73.68352,67.96773 a 274.698,211.97321 0 0 0 41.49455,43.49933 l 82.23927,66.45459 -2.96793,-154.30189 z"
         style="fill:#00e676;fill-opacity:1;stroke:#000000;stroke-width:0"
         id="path5" /><path
         d="m 268.94332,48.215099 -0.36595,155.424381 47.32485,23.74325 73.95293,-68.21917 a 280.04504,216.09929 0 0 0 -47.10035,-51.303 z"
         style="fill:#00e676;fill-opacity:1;stroke:#000000;stroke-width:0"
         id="path8" /><path
         d="M 261.78173,200.23156 262.15216,43.864267 176.496,106.98277 a 274.698,211.97321 0 0 0 -35.94713,32.42694 z"
         style="fill:#00e676;fill-opacity:1;stroke:#000000;stroke-width:0"
         id="path7" /><path
         d="m 393.70048,165.23475 -76.38736,70.46061 -4.56309,-2.94537 -176.41845,-88.51128 A 274.698,211.97321 0 0 0 121.97655,357.3131 l 76.38119,-70.45391 5.00823,3.23187 170.8666,85.72327 a 280.04504,216.09929 0 0 0 19.46791,-210.57958 z"
         style="fill:#00bcd4;fill-opacity:1;stroke:#000000;stroke-width:0"
         id="path15" /></g></g></svg>
